<svg xmlns="http://www.w3.org/2000/svg" viewBox="0 0 1200 630" font-family="ui-monospace, Menlo, monospace">
  <!-- Source artwork for the OG image. Export to /public/og.png (1200x630) before launch. -->
  <rect width="1200" height="630" fill="#101521"/>
  <g stroke="#1d2535" stroke-width="1">
    <path d="M0 105 H1200 M0 210 H1200 M0 315 H1200 M0 420 H1200 M0 525 H1200"/>
    <path d="M150 0 V630 M300 0 V630 M450 0 V630 M600 0 V630 M750 0 V630 M900 0 V630 M1050 0 V630"/>
  </g>
  <path d="M780 180 L930 180 M855 180 V300 M780 300 H930" fill="none" stroke="#27433c" stroke-width="2"/>
  <circle cx="780" cy="180" r="9" fill="#101521" stroke="#55e0b1" stroke-width="3"/>
  <circle cx="930" cy="180" r="9" fill="#101521" stroke="#55e0b1" stroke-width="3"/>
  <circle cx="855" cy="300" r="9" fill="#101521" stroke="#55e0b1" stroke-width="3"/>
  <text x="100" y="270" fill="#55e0b1" font-size="26" letter-spacing="6">SENIOR SOFTWARE DEVELOPER</text>
  <text x="100" y="340" fill="#e8eaf0" font-size="54" font-family="'Space Grotesk', sans-serif">Bawonsak Petchbunjerdkul</text>
  <text x="100" y="400" fill="#8b93a7" font-size="28">Backend systems for real production complexity</text>
  <text x="100" y="520" fill="#5c647a" font-size="22">NestJS · MongoDB · PostgreSQL · Docker · Kubernetes</text>
</svg>
